<svg xmlns="http://www.w3.org/2000/svg"   viewBox="0 0 5000 3500" width="288" height="288"><line x1="1834" x2="1727.3" y1="1888.4" y2="2967.6" fill="none" stroke="#66b0f0" stroke-linecap="round" stroke-miterlimit="10" stroke-width="6" class="colorStroke66b0f0 svgStroke"/><line x1="2268.3" x2="2375" y1="1888.4" y2="2967.6" fill="none" stroke="#66b0f0" stroke-linecap="round" stroke-miterlimit="10" stroke-width="6" class="colorStroke66b0f0 svgStroke"/><path fill="none" stroke="#66b0f0" stroke-linecap="round" stroke-miterlimit="10" stroke-width="6" d="M1760.6,2652c0,0,257-135.7,582,0" class="colorStroke66b0f0 svgStroke"/><path fill="#d0f0e4" stroke="#66b0f0" stroke-linejoin="round" stroke-miterlimit="10" stroke-width="6" d="M2328.6,1888.4H1787c-36,0-65.2-29.2-65.2-65.2V1796h672v27.1C2393.8,1859.2,2364.6,1888.4,2328.6,1888.4z" class="colord0f0e4 svgShape colorStroke66b0f0 svgStroke"/><path fill="none" stroke="#9a3b82" stroke-linecap="round" stroke-miterlimit="10" stroke-width="3" d="M1943.7,2282.1l-19.8,22.3c-12.1,13.7-10.9,34.6,2.8,46.7c6.8,6.1,15.5,8.8,23.9,8.3     c8.5-0.5,16.7-4.2,22.8-11.1l21-23.6c0-0.1,0.1-6.1,0.1-6.2c-9.4-5.1-20.4-6.9-31.3-16.6      C1955.8,2295.3,1949.2,2288.6,1943.7,2282.1z" class="colorStroke9a3b82 svgStroke"/><path fill="#120078" stroke="#fe5244" stroke-miterlimit="10" stroke-width="5" d="M1856.8,2326.3l95.5-87.5l111.1,39.8l-110.2,158.7c-8.8,12.7-26.4,15.7-39,6.7l-52.9-38.2      C1835.1,2386.7,1832.8,2348.2,1856.8,2326.3z" class="colorfff svgShape colorStrokefe5244 svgStroke"/><path fill="#e57281" d="M2317.9,1789.7c6.3,30.8,1.8,64.3-16,94.3l-234.8,394.5l0,0l0,0c-2.2,8.9-30.5,10.3-63.1,2.6      c-32.7-7.7-57.4-21.4-55.3-30.3l109.3-465.1c16.8-71.5,88.4-115.9,160-99.1C2271.4,1699.2,2308,1741.2,2317.9,1789.7z" class="colore57281 svgShape"/><path fill="#9a3b82" d="M2320.3,1825.9c-14.6-11.5-32-20.1-51.7-24.7c-71.5-16.8-143.1,27.5-160,99.1l-90.2,383.8      c-4.7-0.7-9.5-1.7-14.5-2.9c-32.7-7.7-57.4-21.4-55.3-30.3l109.3-465.1c16.8-71.5,88.4-115.9,160-99.1      c53.4,12.6,90,54.6,100,103.1C2320.4,1801.5,2321.2,1813.7,2320.3,1825.9z" class="color9a3b82 svgShape"/><path fill="#d82f25" d="M2008.8,1995.2l-60.1,255.6c-2.1,8.9,22.6,22.7,55.3,30.3c32.7,7.7,61,6.3,63.1-2.6l0,0l140.8-236.5      L2008.8,1995.2z" class="colord82f25 svgShape"/><line x1="2207.9" x2="2008.8" y1="2042" y2="1995.2" fill="none" stroke="#ffffff" stroke-linecap="round" stroke-miterlimit="10" stroke-width="6" class="colorStrokefff svgStroke"/><line x1="2002.1" x2="2190.8" y1="2026.4" y2="2070.8" fill="none" stroke="#ffffff" stroke-linecap="round" stroke-miterlimit="10" stroke-width="6" opacity=".7" class="colorStrokefff svgStroke"/><line x1="1993.7" x2="2170.9" y1="2062" y2="2103.7" fill="none" stroke="#ffffff" stroke-linecap="round" stroke-miterlimit="10" stroke-width="6" opacity=".7" class="colorStrokefff svgStroke"/><line x1="1985.3" x2="2151" y1="2097.7" y2="2136.6" fill="none" stroke="#ffffff" stroke-linecap="round" stroke-miterlimit="10" stroke-width="6" opacity=".7" class="colorStrokefff svgStroke"/><line x1="1977" x2="2131.1" y1="2133.3" y2="2169.5" fill="none" stroke="#ffffff" stroke-linecap="round" stroke-miterlimit="10" stroke-width="6" opacity=".7" class="colorStrokefff svgStroke"/><line x1="1968.6" x2="2111.3" y1="2168.9" y2="2202.4" fill="none" stroke="#ffffff" stroke-linecap="round" stroke-miterlimit="10" stroke-width="6" opacity=".7" class="colorStrokefff svgStroke"/><line x1="1960.2" x2="2091.4" y1="2204.5" y2="2235.3" fill="none" stroke="#ffffff" stroke-linecap="round" stroke-miterlimit="10" stroke-width="6" opacity=".7" class="colorStrokefff svgStroke"/><line x1="1951.8" x2="2073" y1="2240.1" y2="2268.6" fill="none" stroke="#ffffff" stroke-linecap="round" stroke-miterlimit="10" stroke-width="6" opacity=".7" class="colorStrokefff svgStroke"/><g fill="#000000" class="color000 svgShape"><path fill="#e57281" d="M2065.8,2445.3v-638.2c0-73.5-59.6-133-133-133h0c-89.9,0-153.9,87.2-126.9,173l138.3,437.8l-20.2,119.1     c-5.3,31.8,13.6,62.7,44.3,72.4l38.4,12.2C2035.9,2497.8,2065.8,2476,2065.8,2445.3z" class="colore57281 svgShape"/><path fill="#fe5244" d="M2065.8,2012.3v272.6c0,9.2-27.2,16.9-60.8,16.9c-33.5,0-60.8-7.8-60.8-17v0l-85.9-272.5H2065.8z" class="colorfe5244 svgShape"/><polyline fill="none" stroke="#fff" stroke-linecap="round" stroke-miterlimit="10" stroke-width="6" points="1858.2 2009.3 2065.8 2009.3 2066.8 2274.9"/><path fill="#120078" stroke="#fe5244" stroke-miterlimit="10" stroke-width="5" d="M1924,2403.9c-5.3,31.8,13.6,62.7,44.3,72.4l38.4,12.2c29.2,9.3,59.1-12.5,59.1-43.2l-3.4-160.4     c0,9.2-23.8,16.9-57.3,16.9c-33.5,0-58.5-10.1-58.6-19.3L1924,2403.9z" class="colorfff svgShape colorStrokefe5244 svgStroke"/><path fill="#fe5244" d="M2032.7,2321.6v29.8c0,18.3-14.8,33.1-33.1,33.1c-9.1,0-17.4-3.7-23.4-9.7c-6-6-9.7-14.3-9.7-23.4v-31.6     c0-0.1,0-0.1,0-0.2c10.5,2.4,23.9,3.9,38.4,3.9C2015,2323.5,2024.4,2322.8,2032.7,2321.6z" class="colorfe5244 svgShape"/><line x1="2062.7" x2="1871.3" y1="2054.3" y2="2054.3" fill="none" stroke="#ffffff" stroke-linecap="round" stroke-miterlimit="10" stroke-width="6" class="colorStrokefff svgStroke"/><line x1="2062.7" x2="1883.1" y1="2090.9" y2="2090.9" fill="none" stroke="#ffffff" stroke-linecap="round" stroke-miterlimit="10" stroke-width="6" class="colorStrokefff svgStroke"/><line x1="2062.7" x2="1894.9" y1="2127.4" y2="2127.4" fill="none" stroke="#ffffff" stroke-linecap="round" stroke-miterlimit="10" stroke-width="6" class="colorStrokefff svgStroke"/><line x1="2062.7" x2="1906.7" y1="2164" y2="2164" fill="none" stroke="#ffffff" stroke-linecap="round" stroke-miterlimit="10" stroke-width="6" class="colorStrokefff svgStroke"/><line x1="2062.7" x2="1918.6" y1="2200.6" y2="2200.6" fill="none" stroke="#ffffff" stroke-linecap="round" stroke-miterlimit="10" stroke-width="6" class="colorStrokefff svgStroke"/><line x1="2062.7" x2="1930.4" y1="2237.2" y2="2237.2" fill="none" stroke="#ffffff" stroke-linecap="round" stroke-miterlimit="10" stroke-width="6" class="colorStrokefff svgStroke"/><line x1="2062.7" x2="1940.7" y1="2273.8" y2="2273.8" fill="none" stroke="#ffffff" stroke-linecap="round" stroke-miterlimit="10" stroke-width="6" class="colorStrokefff svgStroke"/></g><g fill="#000000" class="color000 svgShape"><path fill="none" stroke="#66b0f0" stroke-linecap="round" stroke-miterlimit="10" stroke-width="6" d="M2979.8,2095.1h79.9c63.3,0,114.6,51.3,114.6,114.6v482.5c0,63.3-51.3,114.6-114.6,114.6h-31.4     c-36.5,0-66.1,29.6-66.1,66.1" class="colorStroke66b0f0 svgStroke"/><circle cx="2965.2" cy="2910.6" r="57" fill="#120078" stroke="#66b0f0" stroke-linejoin="round" stroke-miterlimit="10" stroke-width="6" class="colorfff svgShape colorStroke66b0f0 svgStroke"/><path fill="#d0f0e4" stroke="#66b0f0" stroke-linejoin="round" stroke-miterlimit="10" stroke-width="6" d="M2954,2095.1h488.9c22,0,39.8-17.8,39.8-39.8v-33.5c0-22-17.8-39.8-39.8-39.8H2954    c-25.3,0-45.8,20.5-45.8,45.8v21.4C2908.2,2074.6,2928.7,2095.1,2954,2095.1z" class="colord0f0e4 svgShape colorStroke66b0f0 svgStroke"/><g fill="#000000" class="color000 svgShape"><path fill="none" stroke="#66b0f0" stroke-linecap="round" stroke-miterlimit="10" stroke-width="6" d="M3411.4,2095.1h-79.9c-63.3,0-114.6,51.3-114.6,114.6v482.5c0,63.3,51.3,114.6,114.6,114.6h31.4     c36.5,0,66.1,29.6,66.1,66.1" class="colorStroke66b0f0 svgStroke"/><circle cx="3426.1" cy="2910.6" r="57" fill="#120078" stroke="#66b0f0" stroke-linejoin="round" stroke-miterlimit="10" stroke-width="6" class="colorfff svgShape colorStroke66b0f0 svgStroke"/></g><g fill="#000000" class="color000 svgShape"><path fill="#120078" stroke="#ffcf2d" stroke-miterlimit="10" stroke-width="6" d="M2521.6,2752l36,73.7c12.1,24.8,18.4,51.9,18.4,79.3v55.9c0,9.7-8.1,17.6-18.1,17.6h-411.2       c-10.9,0-19.7-8.6-19.7-19.2v-17.3c0-7,3.9-13.4,10.2-16.8c42.7-22.9,180.6-94.5,207.3-171L2521.6,2752z" class="colorfff svgShape colorStrokeffcf2d svgStroke"/><path fill="#120078" stroke="#ffcf2d" stroke-miterlimit="10" stroke-width="6" d="M2573.5,2875.2h-32.2c-29.8,0-57.5,15.1-73.1,39.8l-13.7,21.8c-8.2,13-22.7,20.9-38.3,20.9h-289" class="colorfff svgShape colorStrokeffcf2d svgStroke"/><path fill="#ffcf2d" d="M2548.6,2807.3c-30.9,1-71.9-2.2-121.4-11.2c-32.5-5.9-63.4-14.9-90.3-25c3.1-5.6,5.6-11.2,7.6-16.8       l177.1-2.3L2548.6,2807.3z" class="colorffcf2d svgShape"/><path fill="none" stroke="#fe5244" stroke-linecap="round" stroke-linejoin="round" stroke-miterlimit="10" stroke-width="6" d="M2258.8 2850.9l32.6-51.7c12.2-19.3-1.3-44.6-24.1-45.2l0 0c-20.6-.6-35.5 19.7-28.7 39.2L2258.8 2850.9zM2257 2851.2l-35.6-29.3c-13.3-10.9-33.5-3.3-36.1 13.8l0 0c-2.4 15.4 11.4 28.4 26.6 25.2L2257 2851.2z" class="colorStrokefe5244 svgStroke"/><line x1="2253.8" x2="2334.7" y1="2849.7" y2="2849.7" fill="none" stroke="#fe5244" stroke-linecap="round" stroke-linejoin="round" stroke-miterlimit="10" stroke-width="6" class="colorStrokefe5244 svgStroke"/><line x1="2230.2" x2="2311" y1="2872.3" y2="2872.3" fill="none" stroke="#fe5244" stroke-linecap="round" stroke-linejoin="round" stroke-miterlimit="10" stroke-width="6" class="colorStrokefe5244 svgStroke"/><line x1="2290.1" x2="2368.9" y1="2826" y2="2826" fill="none" stroke="#fe5244" stroke-linecap="round" stroke-linejoin="round" stroke-miterlimit="10" stroke-width="6" class="colorStrokefe5244 svgStroke"/><path fill="#120078" stroke="#3fb1b5" stroke-linecap="round" stroke-miterlimit="10" stroke-width="6" d="M3002.3,1721.3l-185.5,70.2l-178.4,929.1c-7.2,17-101.8,41.4-190.1,41.4c-93,0-168.3-25.9-168.3-44.2     l109.6-853.4c14.3-112.6,110.1-197.1,223.7-197.1h385.5l1.8,53.9L3002.3,1721.3z" class="colorfff svgShape colorStroke3fb1b5 svgStroke"/><path fill="none" stroke="#3fb1b5" stroke-linecap="round" stroke-miterlimit="10" stroke-width="6" d="M2443.2,2761.8l108.2-842.5c14.1-111.2,114.9-196.6,280.8-196.6" class="colorStroke3fb1b5 svgStroke"/><path fill="#3fb1b5" d="M2916.2,1711.3L2716.5,2322l-77.8-248.8C2590.7,1914.1,2677.2,1711.3,2916.2,1711.3z" class="color3fb1b5 svgShape"/><g fill="#000000" class="color000 svgShape"><path fill="#120078" stroke="#ffcf2d" stroke-miterlimit="10" stroke-width="6" d="M3135.2,2748.3l71.9,179.1c10,24.8-9.7,51.3-38.1,51.3h-270.8c-13.4,0-24.3-10.1-24.3-22.7v-18       c0-8.2,2.6-16.1,7.6-22.9l47.5-51.9c27.7-30.2,42.9-68.7,42.9-108.4v-0.5L3135.2,2748.3z" class="colorfff svgShape colorStrokeffcf2d svgStroke"/><path fill="#120078" stroke="#ffcf2d" stroke-miterlimit="10" stroke-width="6" d="M2891.5,2904.5c15-7,31.5-10.7,48.3-10.7h86.9c15.4,0,30.6,3.1,44.6,9.1l31.8,13.5" class="colorfff svgShape colorStrokeffcf2d svgStroke"/><path fill="#ffcf2d" d="M3138.6,2756.5c-5.6,22.1-79.9,39.7-170.7,39.7h-1.5c3.7-13.5,5.6-27.4,5.6-41.5v-0.5l163.3-5.9       L3138.6,2756.5z" class="colorffcf2d svgShape"/><g fill="#000000" class="color000 svgShape"><path fill="none" stroke="#fe5244" stroke-linejoin="round" stroke-miterlimit="10" stroke-width="6" d="M2997.2 2837.8l54.7-.5c22.6-.3 36.3-25 24.6-44.3l0 0c-10.6-17.5-35.4-18.9-47.9-2.7L2997.2 2837.8zM2997.2 2837.8l-28.6-35.5c-10.7-13.3-31.8-9.9-37.7 6.1v0c-5.4 14.4 5.3 29.8 20.7 29.7L2997.2 2837.8z" class="colorStrokefe5244 svgStroke"/></g><line x1="2966.8" x2="3085.3" y1="2858.2" y2="2858.2" fill="none" stroke="#fe5244" stroke-linecap="round" stroke-linejoin="round" stroke-miterlimit="10" stroke-width="6" class="colorStrokefe5244 svgStroke"/><g fill="#000000" class="color000 svgShape"><path fill="#120078" stroke="#3fb1b5" stroke-linecap="round" stroke-miterlimit="10" stroke-width="6" d="M3198,2700.7c0,21.7-78.4,62.4-160.2,62.4c-73.5,0-134.4-14.6-145.9-33.1l-202.2-646.8      c-56.1-185.7,82.9-372.9,276.8-372.9h33.2l-4.7-166.8h415.2l40.9,169.7c33,137-70.8,272.2-211.7,272.2h-186.4L3198,2700.7z" class="colorfff svgShape colorStroke3fb1b5 svgStroke"/><path fill="none" stroke="#3fb1b5" stroke-linecap="round" stroke-miterlimit="10" stroke-width="6" d="M3069.1,2760L2878,2148.6c-68.7-198.5,8.4-302.5,191.7-302.5h167.1c52.9,0,95.8-42.9,95.8-95.8v-206.4" class="colorStroke3fb1b5 svgStroke"/></g></g></g></g><g fill="#000000" class="color000 svgShape"><path fill="#120078" stroke="#66b0f0" stroke-linejoin="round" stroke-miterlimit="10" stroke-width="6" d="M4020.7,1796H921.4c-12.2,0-16.8-16-6.5-22.5l548-266.6h2041l522.4,270.2   C4034.9,1782.8,4030.9,1796,4020.7,1796z" class="colorfff svgShape colorStroke66b0f0 svgStroke"/><path fill="#d0f0e4" d="M3938,1766.3H1000.2c-13.6,0-18.8-17.9-7.2-25.2l472.9-231.2h2033.3l446.3,231.4   C3956.7,1748.7,3951.5,1766.3,3938,1766.3z" class="colord0f0e4 svgShape"/><line x1="1082.5" x2="879" y1="1796" y2="2967.6" fill="none" stroke="#66b0f0" stroke-linecap="round" stroke-miterlimit="10" stroke-width="6" class="colorStroke66b0f0 svgStroke"/><line x1="1188.6" x2="1392.1" y1="1796" y2="2967.6" fill="none" stroke="#66b0f0" stroke-linecap="round" stroke-miterlimit="10" stroke-width="6" class="colorStroke66b0f0 svgStroke"/><g fill="#000000" class="color000 svgShape"><line x1="3745.2" x2="3541.7" y1="1796" y2="2967.6" fill="none" stroke="#66b0f0" stroke-linecap="round" stroke-miterlimit="10" stroke-width="6" class="colorStroke66b0f0 svgStroke"/><line x1="3851.3" x2="4054.8" y1="1796" y2="2967.6" fill="none" stroke="#66b0f0" stroke-linecap="round" stroke-miterlimit="10" stroke-width="6" class="colorStroke66b0f0 svgStroke"/></g></g><g fill="#000000" class="color000 svgShape"><path fill="#120078" stroke="#66b0f0" stroke-linejoin="round" stroke-miterlimit="10" stroke-width="6" d="M1459.4,1464.2l-28.8,203.9c-1.7,12.1-12,21-24.2,21h-56.3c-12.2,0-22.5-9-24.2-21l-28.8-203.9   c0,18.3,36.3,33.1,81.1,33.1C1423.1,1497.3,1459.4,1482.4,1459.4,1464.2z" class="colorfff svgShape colorStroke66b0f0 svgStroke"/><path fill="#66b0f0" d="M1441.3,1486l-25.7,180.5c-1.9,13.5-13.6,23.6-27.2,23.6h-19.3c-13.6,0-25.3-10.1-27.2-23.6l-25.7-180    c2,0.9,4.2,1.7,6.4,2.5l25.2,176.7c1.4,9.7,9.2,17.2,18.8,18.3c0.8,0.1,1.6,0.2,2.5,0.2h19.3c1.2,0,2.4-0.1,3.5-0.3    c9.1-1.5,16.4-8.8,17.7-18.2l25.2-177.1C1437.2,1487.8,1439.3,1486.9,1441.3,1486z" class="color66b0f0 svgShape"/><path fill="#66b0f0" d="M1414.8 1494l-22.9 189.9-.3 2.6c-.2 1.5-1.5 2.6-3 2.6-.1 0-.2 0-.4 0-1.7-.2-2.8-1.7-2.6-3.3l.2-1.6 22.8-189.1C1410.8 1494.7 1412.8 1494.3 1414.8 1494zM1370.3 1689.1c-.1 0-.2 0-.4 0-1.5 0-2.8-1.1-3-2.6l-.3-2.5-22.9-189.6c2 .4 4.1.7 6.2 1l22.8 188.8.2 1.6C1373.1 1687.4 1371.9 1688.9 1370.3 1689.1z" class="color66b0f0 svgShape"/><path fill="#66b0f0" d="M1462.3,1464.2c0,8.4-7.9,16-20.9,21.9c-2,0.9-4.2,1.8-6.4,2.6c-6,2.1-12.7,4-20.1,5.4    c-2,0.4-4.1,0.7-6.2,1.1c-8.7,1.3-18.2,2.1-28.1,2.2c-0.8,0-1.5,0-2.3,0c-1.1,0-2.2,0-3.3,0c-8.8-0.1-17.2-0.8-25-1.9    c-2.1-0.3-4.1-0.6-6.2-1c-7.7-1.4-14.8-3.2-21.1-5.4c-2.2-0.8-4.4-1.6-6.4-2.5c-13.7-5.9-22-13.7-22-22.3c0-0.7,0.1-1.4,0.2-2.1    c2.8-17.3,39.2-30.9,83.8-30.9c44.6,0,81.1,13.7,83.8,30.9C1462.2,1462.8,1462.3,1463.5,1462.3,1464.2z" class="color66b0f0 svgShape"/><path fill="#66b0f0" d="M1381.8,1683.5c0,0.2,0,0.5-0.1,0.7c-0.3,1.3-1.5,2.3-2.9,2.3h0c-1.4,0-2.6-1-2.9-2.3    c-0.1-0.2-0.1-0.4-0.1-0.6l-1-185.2c0-0.4,0.1-0.7,0.2-1.1c1.1,0,2.2,0,3.3,0c0.8,0,1.6,0,2.3,0c0.1,0.3,0.2,0.6,0.2,1    L1381.8,1683.5z" class="color66b0f0 svgShape"/><path fill="#ffcf2d" d="M1378.8,1491.2c-17.8-0.5-34.1-3.2-47.3-7.5l-47.2-197.9h45.5L1378.8,1491.2z" class="colorffcf2d svgShape"/><path fill="#120078" d="M1335.7 1310.8h-18.6c-1.4 0-2.5-1.1-2.5-2.5 0-1.4 1.1-2.5 2.5-2.5h17.4L1335.7 1310.8zM1340.7 1331.8h-18.6c-1.4 0-2.5-1.1-2.5-2.5 0-1.4 1.1-2.5 2.5-2.5h17.4L1340.7 1331.8zM1345.7 1352.8h-18.6c-1.4 0-2.5-1.1-2.5-2.5 0-1.4 1.1-2.5 2.5-2.5h17.4L1345.7 1352.8zM1350.8 1373.8h-18.6c-1.4 0-2.5-1.1-2.5-2.5 0-1.4 1.1-2.5 2.5-2.5h17.4L1350.8 1373.8zM1355.8 1394.8h-18.6c-1.4 0-2.5-1.1-2.5-2.5 0-1.4 1.1-2.5 2.5-2.5h17.4L1355.8 1394.8zM1360.8 1415.8h-17.7c-1.4 0-2.5-1.1-2.5-2.5 0-1.4 1.1-2.5 2.5-2.5h16.5L1360.8 1415.8zM1365.8 1436.8h-18.7c-1.4 0-2.5-1.1-2.5-2.5 0-1.4 1.1-2.5 2.5-2.5h17.5L1365.8 1436.8zM1370.8 1457.8h-18.7c-1.4 0-2.5-1.1-2.5-2.5 0-1.4 1.1-2.5 2.5-2.5h17.5L1370.8 1457.8zM1375.8 1478.7c-.2.1-.4.1-.7.1h-19c-1.4 0-2.5-1.1-2.5-2.5 0-1.4 1.1-2.5 2.5-2.5h18.5L1375.8 1478.7z" class="colorfff svgShape"/><g fill="#000000" class="color000 svgShape"><path fill="#fe5244" d="M1720.3,1713.2C1720.3,1713.2,1720.2,1713.3,1720.3,1713.2l-4.2,15.3c-0.1,0.4-0.4,0.6-0.7,0.5l-216-64.5      c-0.3-0.1-0.4-0.5-0.3-0.8l4.1-15.2c0-0.2,0.2-0.3,0.3-0.4s0.3-0.1,0.4-0.1l216,64.5c0.1,0,0.2,0.2,0.3,0.3      C1720.3,1712.9,1720.3,1713.1,1720.3,1713.2z" class="colorfe5244 svgShape"/><path fill="#ffcf2d" d="M1506.4,1648.9l-4.4,16.3c-0.3,1.1-1.2,1.8-2.1,1.6l-4.9-1.5c-0.8-0.2-1.3-1.4-1-2.5l4.4-16.3      c0.3-1.1,1.2-1.8,2.1-1.6l4.9,1.5C1506.2,1646.6,1506.7,1647.7,1506.4,1648.9z" class="colorffcf2d svgShape"/><path fill="#fe5244" d="M1486.5,1647.7l-2,7.6c-0.6,2.1,0.7,4.3,2.9,5l6.9,2l4.1-15.3l-6.9-2      C1489.3,1644.4,1487.1,1645.6,1486.5,1647.7z" class="colorfe5244 svgShape"/><polygon fill="#120078" points="1719.7 1713.1 1726.2 1719.7 1731.2 1724.8 1724.4 1726.4 1715.6 1728.4" class="colorfff svgShape"/><path fill="#fe5244" d="M1731.7,1724.9C1731.7,1724.9,1731.7,1724.9,1731.7,1724.9c-0.1,0.4-0.3,0.6-0.5,0.6l-15.6,3.6      c-0.2,0-0.4,0-0.5-0.2c-0.1-0.2-0.1-0.4-0.1-0.6l4.1-15.2c0.1-0.2,0.2-0.4,0.4-0.5c0.2-0.1,0.4-0.1,0.5,0.1l11.5,11.7      C1731.7,1724.4,1731.8,1724.6,1731.7,1724.9z M1716.4,1727.5l13.5-3.1l-9.9-10.1L1716.4,1727.5z" class="colorfe5244 svgShape"/><g fill="#000000" class="color000 svgShape"><polygon fill="#f0e1d4" points="1726.2 1719.7 1731.2 1724.8 1724.4 1726.4" class="colorf0e1d4 svgShape"/><path fill="#fe5244" d="M1731.7,1724.9C1731.7,1724.9,1731.7,1724.9,1731.7,1724.9c-0.1,0.4-0.3,0.6-0.5,0.6l-6.8,1.6      c-0.2,0-0.4,0-0.5-0.2c-0.1-0.2-0.1-0.4-0.1-0.6l1.8-6.6c0.1-0.2,0.2-0.4,0.4-0.5c0.2-0.1,0.4-0.1,0.5,0.1l5,5.1      C1731.7,1724.4,1731.8,1724.6,1731.7,1724.9z" class="colorfe5244 svgShape"/></g></g><path fill="#fe5244" d="M1415.4,1358.3c0,0.6,0,1.3-0.1,1.9l-16.3,130c-6.5,0.7-13.2,1.1-20.2,1.1l8-133.9c0.5-7.5,6.7-13.4,14.3-13.4   C1409.1,1344,1415.4,1350.5,1415.4,1358.3z" class="colorfe5244 svgShape"/></g><g fill="#000000" class="color000 svgShape"><path fill="#3fb1b5" d="M3667,2575h198.2c6.2-22.2,26.5-38.5,50.7-38.5h-198.2C3693.5,2536.5,3673.2,2552.8,3667,2575z" class="color3fb1b5 svgShape"/><path fill="#120078" stroke="#3fb1b5" stroke-linecap="round" stroke-miterlimit="10" stroke-width="6" d="M3719.4,2539.7c29,0,52.6,23.6,52.6,52.6v52.6h198.2v-52.6c0-29.1-23.6-52.6-52.6-52.6H3719.4z" class="colorfff svgShape colorStroke3fb1b5 svgStroke"/><polygon fill="#120078" stroke="#ffcf2d" stroke-miterlimit="10" stroke-width="6" points="4071.6 2570.9 3890.7 2570.9 3901.7 2621.1 4082.6 2621.1" class="colorfff svgShape colorStrokeffcf2d svgStroke"/><path fill="#120078" stroke="#ffcf2d" stroke-miterlimit="10" stroke-width="6" d="M4164.5,2967.5h-421.9c33.9,0,59.1-31.4,51.7-64.5l-57.9-260.1c-2.8-12.8-14.2-21.9-27.3-21.9h421.9   c13.1,0,24.4,9.1,27.3,21.9l57.9,260.1C4223.6,2936.1,4198.4,2967.5,4164.5,2967.5z" class="colorfff svgShape colorStrokeffcf2d svgStroke"/><path fill="none" stroke="#d0f0e4" stroke-miterlimit="10" stroke-width="10" d="M4052,2625.1l20.9,93.9c12.1,54.2-29.2,105.7-84.7,105.7h-17.7c-66.6,0-124.2-46.2-138.7-111.2l-19.7-88.4" class="colorStroked0f0e4 svgStroke"/><path fill="none" stroke="#ffcf2d" stroke-linecap="round" stroke-miterlimit="10" stroke-width="10" d="M4073,2624.1l20.9,93.9c12.1,54.2-29.2,105.7-84.7,105.7h-17.7c-66.6,0-124.2-46.2-138.7-111.2l-19.7-88.4" class="colorStrokeffcf2d svgStroke"/><path fill="#ffcf2d" stroke="#ffcf2d" stroke-miterlimit="10" stroke-width="6" d="M3742.6,2967.5h-69.6c-33.9,0-59.1-31.4-51.7-64.5l57.9-260.1c2.8-12.8,14.2-21.9,27.3-21.9h2.8   c13.1,0,24.4,9.1,27.3,21.9l57.9,260.1C3801.7,2936.1,3776.5,2967.5,3742.6,2967.5z" class="colorffcf2d svgShape colorStrokeffcf2d svgStroke"/><line x1="3709.1" x2="3709.1" y1="2621.1" y2="2907.3" fill="none" stroke="#ffffff" stroke-miterlimit="10" stroke-width="6" class="colorStrokefff svgStroke"/><polyline fill="none" stroke="#fff" stroke-linecap="round" stroke-miterlimit="10" stroke-width="6" points="3642.8 2958.1 3709 2906.5 3774.8 2958.5"/></g><g fill="#000000" class="color000 svgShape"><path fill="#3fb1b5" d="M940.7 2528.4c0 0-125.5-161.2-105.6-211 17-42.5 55.7-2.9 55.7-2.9L940.7 2528.4zM1033 2698.2c0 0 130.7-144 127.7-195.8s-50.3-27.5-50.3-27.5L1033 2698.2z" class="color3fb1b5 svgShape"/><path fill="#ffcf2d" d="M1169.4,2824.9c0,43.4-18.4,83-48.6,113.2c-24.3,24.2-57.3,37.6-91.6,37.6H922.7c-34.3,0-67.3-13.4-91.6-37.6   c-30.2-30.1-48.6-69.8-48.6-113.2c0-61.8,37.2-115.9,93-145.9h201C1132.2,2708.9,1169.4,2763.1,1169.4,2824.9z" class="colorffcf2d svgShape"/><ellipse cx="976" cy="2685.5" fill="#3fb1b5" rx="102.9" ry="27.3" class="color3fb1b5 svgShape"/><path fill="#120078" stroke="#3fb1b5" stroke-linecap="round" stroke-miterlimit="10" stroke-width="6" d="M1033,2698.2c-16.3,2.9-35.9,4.6-57,4.6c-20,0-38.7-1.5-54.4-4.1c-37.2-39.5-127.8-144.3-94.3-196.1   c41.8-64.7,113.5,25.9,113.5,25.9s-84.6-259.8-39.8-317.5s79.9,44.8,79.9,44.8s22.6-124.4,83.3-112.5   c57.9,11.4-31.8,299.9-40.2,326.5c4.3-12.8,30.3-83.4,81-76.9C1153,2399,1059.4,2634.1,1033,2698.2z" class="colorfff svgShape colorStroke3fb1b5 svgStroke"/><path fill="none" stroke="#3fb1b5" stroke-linecap="round" stroke-miterlimit="10" stroke-width="6" d="M1064.1 2143.2c0 0-85.6 237.4-88.1 559.6M980.8 2255.7c4.6 25.8 22.1 140.7 13.2 199.4M1104.9 2392.8c0 0-97.6 125.6-108.5 309.4M836.8 2490.7c0 0 116.6 73.9 118.6 211.6" class="colorStroke3fb1b5 svgStroke"/><circle cx="877.7" cy="2435.4" r="20.4" fill="none" stroke="#ffcf2d" stroke-miterlimit="10" stroke-width="6" class="colorStrokeffcf2d svgStroke"/><circle cx="830.5" cy="2415.6" r="9.4" fill="none" stroke="#ffcf2d" stroke-miterlimit="10" stroke-width="6" class="colorStrokeffcf2d svgStroke"/><circle cx="844" cy="2652" r="9.4" fill="none" stroke="#ffcf2d" stroke-miterlimit="10" stroke-width="6" class="colorStrokeffcf2d svgStroke"/><circle cx="1094.2" cy="2350.6" r="20.4" fill="none" stroke="#ffcf2d" stroke-miterlimit="10" stroke-width="6" class="colorStrokeffcf2d svgStroke"/><circle cx="1100.2" cy="2286.2" r="9.4" fill="none" stroke="#ffcf2d" stroke-miterlimit="10" stroke-width="6" class="colorStrokeffcf2d svgStroke"/><circle cx="1134.3" cy="2361.6" r="9.4" fill="none" stroke="#ffcf2d" stroke-miterlimit="10" stroke-width="6" class="colorStrokeffcf2d svgStroke"/></g><g fill="#000000" class="color000 svgShape"><path fill="#fe5244" d="M3203.1,916.2l201.3,56.8c88.1,24.1,152,100.5,160,191.5l30.7,339.5H2529.8l98.4-381.5    c16.1-63.6,64.3-114,127.1-132.9l235.1-73.4H3203.1z" class="colorfe5244 svgShape"/><circle cx="2589.7" cy="1465" r="9.7" fill="#120078" class="colorfff svgShape"/><circle cx="2690.7" cy="1465" r="9.7" fill="#120078" class="colorfff svgShape"/><circle cx="2791.7" cy="1465" r="9.7" fill="#120078" class="colorfff svgShape"/><circle cx="2892.7" cy="1465" r="9.7" fill="#120078" class="colorfff svgShape"/><circle cx="2993.7" cy="1465" r="9.7" fill="#120078" class="colorfff svgShape"/><circle cx="3094.7" cy="1465" r="9.7" fill="#120078" class="colorfff svgShape"/><circle cx="3195.7" cy="1465" r="9.7" fill="#120078" class="colorfff svgShape"/><circle cx="3296.7" cy="1465" r="9.7" fill="#120078" class="colorfff svgShape"/><circle cx="3397.7" cy="1465" r="9.7" fill="#120078" class="colorfff svgShape"/><circle cx="3498.7" cy="1465" r="9.7" fill="#120078" class="colorfff svgShape"/><g fill="#000000" class="color000 svgShape"><circle cx="2641.7" cy="1397" r="9.7" fill="#120078" class="colorfff svgShape"/><circle cx="2742.7" cy="1397" r="9.7" fill="#120078" class="colorfff svgShape"/><circle cx="2843.7" cy="1397" r="9.7" fill="#120078" class="colorfff svgShape"/><circle cx="2944.7" cy="1397" r="9.7" fill="#120078" class="colorfff svgShape"/><circle cx="3045.7" cy="1397" r="9.7" fill="#120078" class="colorfff svgShape"/><circle cx="3146.7" cy="1397" r="9.7" fill="#120078" class="colorfff svgShape"/><circle cx="3247.7" cy="1397" r="9.7" fill="#120078" class="colorfff svgShape"/><circle cx="3348.7" cy="1397" r="9.7" fill="#120078" class="colorfff svgShape"/><circle cx="3449.7" cy="1397" r="9.7" fill="#120078" class="colorfff svgShape"/><circle cx="3550.7" cy="1397" r="9.7" fill="#120078" class="colorfff svgShape"/></g><g fill="#000000" class="color000 svgShape"><circle cx="2589.7" cy="1327" r="9.7" fill="#120078" class="colorfff svgShape"/><circle cx="2690.7" cy="1327" r="9.7" fill="#120078" class="colorfff svgShape"/><circle cx="2791.7" cy="1327" r="9.7" fill="#120078" class="colorfff svgShape"/><circle cx="2892.7" cy="1327" r="9.7" fill="#120078" class="colorfff svgShape"/><circle cx="2993.7" cy="1327" r="9.7" fill="#120078" class="colorfff svgShape"/><circle cx="3094.7" cy="1327" r="9.7" fill="#120078" class="colorfff svgShape"/><circle cx="3195.7" cy="1327" r="9.7" fill="#120078" class="colorfff svgShape"/><circle cx="3296.7" cy="1327" r="9.7" fill="#120078" class="colorfff svgShape"/><circle cx="3397.7" cy="1327" r="9.7" fill="#120078" class="colorfff svgShape"/><circle cx="3498.7" cy="1327" r="9.7" fill="#120078" class="colorfff svgShape"/></g><g fill="#000000" class="color000 svgShape"><circle cx="2641.7" cy="1262" r="9.7" fill="#120078" class="colorfff svgShape"/><circle cx="2742.7" cy="1262" r="9.7" fill="#120078" class="colorfff svgShape"/><circle cx="2843.7" cy="1262" r="9.7" fill="#120078" class="colorfff svgShape"/><circle cx="2944.7" cy="1262" r="9.7" fill="#120078" class="colorfff svgShape"/><circle cx="3045.7" cy="1262" r="9.7" fill="#120078" class="colorfff svgShape"/><circle cx="3146.7" cy="1262" r="9.7" fill="#120078" class="colorfff svgShape"/><circle cx="3247.7" cy="1262" r="9.7" fill="#120078" class="colorfff svgShape"/><circle cx="3351.7" cy="1262" r="9.7" fill="#120078" class="colorfff svgShape"/><circle cx="3449.7" cy="1262" r="9.7" fill="#120078" class="colorfff svgShape"/><circle cx="3550.7" cy="1262" r="9.7" fill="#120078" class="colorfff svgShape"/></g><g fill="#000000" class="color000 svgShape"><circle cx="2690.7" cy="1195" r="9.7" fill="#120078" class="colorfff svgShape"/><circle cx="2892.7" cy="1195" r="9.7" fill="#120078" class="colorfff svgShape"/><circle cx="2993.7" cy="1195" r="9.7" fill="#120078" class="colorfff svgShape"/><circle cx="3094.7" cy="1195" r="9.7" fill="#120078" class="colorfff svgShape"/><circle cx="3195.7" cy="1195" r="9.7" fill="#120078" class="colorfff svgShape"/><circle cx="3296.7" cy="1195" r="9.7" fill="#120078" class="colorfff svgShape"/><circle cx="3397.7" cy="1195" r="9.7" fill="#120078" class="colorfff svgShape"/><circle cx="3498.7" cy="1195" r="9.7" fill="#120078" class="colorfff svgShape"/></g><g fill="#000000" class="color000 svgShape"><circle cx="2641.7" cy="1129" r="9.7" fill="#120078" class="colorfff svgShape"/><circle cx="2742.7" cy="1129" r="9.7" fill="#120078" class="colorfff svgShape"/><circle cx="2843.7" cy="1129" r="9.7" fill="#120078" class="colorfff svgShape"/><circle cx="2944.7" cy="1129" r="9.7" fill="#120078" class="colorfff svgShape"/><circle cx="3045.7" cy="1129" r="9.7" fill="#120078" class="colorfff svgShape"/><circle cx="3146.7" cy="1129" r="9.7" fill="#120078" class="colorfff svgShape"/><circle cx="3247.7" cy="1129" r="9.7" fill="#120078" class="colorfff svgShape"/><circle cx="3348.7" cy="1129" r="9.7" fill="#120078" class="colorfff svgShape"/><circle cx="3449.7" cy="1129" r="9.7" fill="#120078" class="colorfff svgShape"/><circle cx="3545.7" cy="1129" r="9.7" fill="#120078" class="colorfff svgShape"/></g><g fill="#000000" class="color000 svgShape"><circle cx="2690.7" cy="1064" r="9.7" fill="#120078" class="colorfff svgShape"/><circle cx="2791.7" cy="1064" r="9.7" fill="#120078" class="colorfff svgShape"/><circle cx="2892.7" cy="1064" r="9.7" fill="#120078" class="colorfff svgShape"/><circle cx="2993.7" cy="1064" r="9.7" fill="#120078" class="colorfff svgShape"/><circle cx="3094.7" cy="1064" r="9.7" fill="#120078" class="colorfff svgShape"/><circle cx="3195.7" cy="1064" r="9.7" fill="#120078" class="colorfff svgShape"/><circle cx="3296.7" cy="1064" r="9.7" fill="#120078" class="colorfff svgShape"/><circle cx="3397.7" cy="1064" r="9.7" fill="#120078" class="colorfff svgShape"/><circle cx="3498.7" cy="1064" r="9.7" fill="#120078" class="colorfff svgShape"/></g><g fill="#000000" class="color000 svgShape"><circle cx="2993.7" cy="942" r="9.7" fill="#120078" class="colorfff svgShape"/><circle cx="3094.7" cy="942" r="9.7" fill="#120078" class="colorfff svgShape"/><circle cx="3195.7" cy="942" r="9.7" fill="#120078" class="colorfff svgShape"/><path fill="#120078" d="M3305.9,945.2c-1.3,3.8-4.9,6.5-9.2,6.5c-5.3,0-9.7-4.3-9.7-9.7c0-0.7,0.1-1.4,0.2-2.1L3305.9,945.2z" class="colorfff svgShape"/></g><g fill="#000000" class="color000 svgShape"><circle cx="2742.7" cy="1003" r="9.7" fill="#120078" class="colorfff svgShape"/><circle cx="2843.7" cy="1003" r="9.7" fill="#120078" class="colorfff svgShape"/><circle cx="2935.1" cy="990.1" r="9.7" fill="#120078" class="colorfff svgShape"/><circle cx="3045.7" cy="1003" r="9.7" fill="#120078" class="colorfff svgShape"/><circle cx="3146.7" cy="1003" r="9.7" fill="#120078" class="colorfff svgShape"/><circle cx="3247.7" cy="1003" r="9.7" fill="#120078" class="colorfff svgShape"/><circle cx="3348.7" cy="1003" r="9.7" fill="#120078" class="colorfff svgShape"/><circle cx="3449.7" cy="1003" r="9.7" fill="#120078" class="colorfff svgShape"/></g><g fill="#000000" class="color000 svgShape"><line x1="3363.2" x2="3341.2" y1="1506.9" y2="1207.6" fill="none" stroke="#ffffff" stroke-linecap="round" stroke-miterlimit="10" stroke-width="6" class="colorStrokefff svgStroke"/><path fill="none" stroke="#ffffff" stroke-linecap="round" stroke-miterlimit="10" stroke-width="6" d="M2842.7,1506.9v-90.7l-20.8-12.2c-35.1-20.6-52.7-61.5-43.6-101.1l31.9-139.2" class="colorStrokefff svgStroke"/><polyline fill="none" stroke="#fff" stroke-linecap="round" stroke-miterlimit="10" stroke-width="6" points="2985.3 914.8 3051.9 1107.7 3206.4 914.8"/><polyline fill="none" stroke="#fff" stroke-linecap="round" stroke-miterlimit="10" stroke-width="6" points="3163.1 967.3 3228.5 1043.1 3296.2 946.6"/><polyline fill="none" stroke="#fff" stroke-linecap="round" stroke-miterlimit="10" stroke-width="6" points="3003.9 967.3 2927.6 1032.1 2883.1 948"/><line x1="2781.8" x2="2795.5" y1="1163.7" y2="1227.6" fill="none" stroke="#ffffff" stroke-linecap="round" stroke-miterlimit="10" stroke-width="6" class="colorStrokefff svgStroke"/></g><g fill="#000000" class="color000 svgShape"><polygon fill="#ffcf2d" points="3062.5 1766.3 2788.4 1766.3 2667.2 1577 2941.3 1577" class="colorffcf2d svgShape"/><polygon fill="#120078" stroke="#3fb1b5" stroke-linejoin="round" stroke-miterlimit="10" stroke-width="6" points="2897.2 1725.2 2623 1725.2 2501.9 1536 2776 1536" class="colorfff svgShape colorStroke3fb1b5 svgStroke"/><path fill="none" stroke="#3fb1b5" stroke-linecap="round" stroke-miterlimit="10" stroke-width="5" d="M2560.6 1563.6l10.2 4.4c6.8 2.9 12.9 3 15.2.2l3.7-4.7c2.2-2.8 8.4-2.8 15.2.2l10.2 4.4c6.8 2.9 12.9 3 15.2.2l4.1-5.3c2.2-2.8 8.4-2.8 15.2.2l13.5 5.9c6.8 2.9 12.9 3 15.2.2l4.9-6.2c2.2-2.8 8.4-2.8 15.2.2l15.5 6.8c6.8 2.9 12.9 3 15.2.2l5.3-6.8M2602.1 1608c6.8 2.9 12.9 3 15.2.2l3.7-4.7c2.2-2.8 8.4-2.8 15.2.2l10.2 4.4c6.8 2.9 12.9 3 15.2.2l4.1-5.3c2.2-2.8 8.4-2.8 15.2.2l13.5 5.9c6.8 2.9 12.9 3 15.2.2l4.9-6.2c2.2-2.8 8.4-2.8 15.2.2l15.5 6.8c6.8 2.9 12.9 3 15.2.2l5.3-6.8M2623.2 1643.5l10.2 4.4c6.8 2.9 12.9 3 15.2.2l3.7-4.7c2.2-2.8 8.4-2.8 15.2.2l10.2 4.4c6.8 2.9 12.9 3 15.2.2l4.1-5.3c2.2-2.8 8.4-2.8 15.2.2l13.5 5.9c6.8 2.9 12.9 3 15.2.2l4.9-6.2c2.2-2.8 8.4-2.8 15.2.2l15.5 6.8c6.8 2.9 12.9 3 15.2.2l5.3-6.8M2654.5 1683.5l10.2 4.4c6.8 2.9 12.9 3 15.2.2l3.7-4.7c2.2-2.8 8.4-2.8 15.2.2l10.2 4.4c6.8 2.9 12.9 3 15.2.2l4.1-5.3c2.2-2.8 8.4-2.8 15.2.2l13.5 5.9c6.8 2.9 12.9 3 15.2.2l4.9-6.2c2.2-2.8 8.4-2.8 15.2.2l15.5 6.8c6.8 2.9 12.9 3 15.2.2l5.3-6.8" class="colorStroke3fb1b5 svgStroke"/></g><g fill="#000000" class="color000 svgShape"><path fill="#a0505a" d="M2951,1616.4h525.8c69.6,0,124.1-59.9,117.5-129.1v0c-6.6-69.5-71.7-118.2-140.2-104.8l-605.1,84.3    c-22.9,3.2-43,17.1-53.9,37.5l-53.6,99.6c-1.9,2.5-3.2,5.4-4,8.4l-20.1,77.7h11.3c17.5,0,33.7-9.7,41.9-25.2l10.1-18.9l116.3,12.6    c21.8,2.7,42.5-12.2,50.3-32.6L2951,1616.4z" class="colora0505a svgShape"/><line x1="2781.8" x2="2816.9" y1="1642.5" y2="1569.8" fill="none" stroke="#73325a" stroke-linecap="round" stroke-miterlimit="10" stroke-width="6" class="colorStroke73325a svgStroke"/><line x1="2828.6" x2="2863.7" y1="1647.1" y2="1574.4" fill="none" stroke="#73325a" stroke-linecap="round" stroke-miterlimit="10" stroke-width="6" class="colorStroke73325a svgStroke"/><line x1="2874.4" x2="2909.4" y1="1652.8" y2="1580.1" fill="none" stroke="#73325a" stroke-linecap="round" stroke-miterlimit="10" stroke-width="6" class="colorStroke73325a svgStroke"/><line x1="2951" x2="2967" y1="1616.4" y2="1568.7" fill="none" stroke="#73325a" stroke-linecap="round" stroke-miterlimit="10" stroke-width="6" class="colorStroke73325a svgStroke"/></g><g fill="#000000" class="color000 svgShape"><path fill="#120078" stroke="#ffcf2d" stroke-miterlimit="10" stroke-width="6" d="M3080.4,573.8c0,0,68.8-43.2,136,11.3c63.4,51.5,33.8,153,10.6,136c-19.9-14.5,135.2-64,183.8,50.9     c55.1,130.2-69,204.1-210.5,139.7H2995l-218.3,68.1c0,0-110.9-56.4-50.6-166.4c55.7-101.5,188.8-65.3,173.8-40.2     c-21.1,35.2-111.3-76.2-47.9-181.4C2919,480.6,3071.2,522,3080.4,573.8z" class="colorfff svgShape colorStrokeffcf2d svgStroke"/><path fill="none" stroke="#ffcf2d" stroke-linecap="round" stroke-linejoin="round" stroke-miterlimit="10" stroke-width="6" d="M3124.7,718.9c0,0-62.3-29.6-50.8-90.3c0,0-28.5,81.8-120.8,81.2c-42.4-0.3-40.6-44.3-18-64.9" class="colorStrokeffcf2d svgStroke"/><polygon fill="#a0505a" points="3202 915.9 3149.5 776.5 3000.3 776.5 2988.6 915.9 3052.9 1100.7" class="colora0505a svgShape"/><path fill="#73325a" d="M3081.5,886.4l-78.7,69.5l-14.2-40l11.7-139.4h132.2v2.6C3132.4,820.8,3113.7,860.2,3081.5,886.4z" class="color73325a svgShape"/><g fill="#000000" class="color000 svgShape"><path fill="#a0505a" d="M3183.6,749.4v5.6c0,15.2-12.4,27.6-27.6,27.6h-30c-5.6,42.5-42,75.4-86,75.4c-24,0-45.7-9.7-61.4-25.4     c-15.7-15.7-25.4-37.4-25.4-61.4v-58.4c92.3,0.7,118.8-75.2,118.8-75.2c-6.1,57,45.9,81.5,53.8,84.8v-0.6h30.2     C3171.2,721.8,3183.6,734.2,3183.6,749.4z" class="colora0505a svgShape"/><path fill="none" stroke="#73325a" stroke-linecap="round" stroke-miterlimit="10" stroke-width="6" d="M3055.1,696.2c0,0,21.5,0.4,36,15.8" class="colorStroke73325a svgStroke"/><ellipse cx="3050.6" cy="754.8" fill="#73325a" rx="6.1" ry="10.7" class="color73325a svgShape"/><ellipse cx="2967.3" cy="754.8" fill="#73325a" rx="6.1" ry="10.7" class="color73325a svgShape"/><path fill="none" stroke="#73325a" stroke-linecap="round" stroke-miterlimit="10" stroke-width="6" d="M3004.2 806.3c0 0 16.4 7.9 31.3-6.6M3133.7 760.3c0-13 10.6-23.6 23.6-23.6M2962.7 697.2c0 0-21.5.4-36 15.8" class="colorStroke73325a svgStroke"/><g fill="#000000" class="color000 svgShape"><ellipse cx="2964" cy="753.3" fill="none" stroke="#fe5244" stroke-linejoin="round" stroke-miterlimit="10" stroke-width="6" rx="34.3" ry="40.3" class="colorStrokefe5244 svgStroke"/><ellipse cx="3056.1" cy="753.3" fill="none" stroke="#fe5244" stroke-linejoin="round" stroke-miterlimit="10" stroke-width="6" rx="34.3" ry="40.3" class="colorStrokefe5244 svgStroke"/><path fill="none" stroke="#fe5244" stroke-linejoin="round" stroke-miterlimit="10" stroke-width="6" d="M3021.9,753.3c0,0-12.3-8.8-23.6,0" class="colorStrokefe5244 svgStroke"/></g></g></g></g><g fill="#000000" class="color000 svgShape"><path fill="#9a3b82" d="M1941.9,1187.8h194.6c95.2,0,186.9,36.4,256.1,101.7l114.4,107.9l-170,47.5l-32.7-30.8    c-11.9-11.1-31.3-5.3-35.1,10.5l-14.2,59.8h-379.1l-17.2-100.3c-4.7-16.3-25.7-20.8-36.6-7.8l-13.3,15.9l-260.1-4.8l171.3-126.6    C1784.2,1213.4,1862,1187.8,1941.9,1187.8z" class="color9a3b82 svgShape"/><path fill="#3fb1b5" d="M1953.4,1187.8l102.2,177.8l96.3-177.3c11.3,0.6,22.5,1.7,33.6,3.3c-4.4,26.6-26.3,185.6,65,292.8h-379.1    c0,0,76.3-152.9,45.7-296.1L1953.4,1187.8z" class="color3fb1b5 svgShape"/><polygon fill="none" stroke="#9a3b82" stroke-linecap="round" stroke-miterlimit="10" stroke-width="3" points="1719 1686.6 2465.4 1686.6 2320.1 1484.5 1875.9 1484.5" class="colorStroke9a3b82 svgStroke"/><polygon fill="#120078" stroke="#3fb1b5" stroke-linejoin="round" stroke-miterlimit="10" stroke-width="6" points="2465.4 1686.6 1719 1686.6 1875.9 1484.5 2320.1 1484.5" class="colorfff svgShape colorStroke3fb1b5 svgStroke"/><path fill="#3fb1b5" d="M2092.2 1686.6H1719C1940.8 1551.8 2092.2 1686.6 2092.2 1686.6zM2092.2 1686.6h373.2C2243.6 1551.8 2092.2 1686.6 2092.2 1686.6z" class="color3fb1b5 svgShape"/><line x1="2092.2" x2="2092.2" y1="1686.6" y2="1484.5" fill="none" stroke="#3fb1b5" stroke-linecap="round" stroke-miterlimit="10" stroke-width="6" class="colorStroke3fb1b5 svgStroke"/><g fill="#000000" class="color000 svgShape"><path fill="#e57281" d="M2263.3,1548.8l107.2-151.1c16.4-20.9,41.5-33.2,68.1-33.2h0c47.8,0,86.6,38.8,86.6,86.6v3     c0,30.8-16.4,59.3-43,74.8l-143.2,82l-39.6,68.1c-7.4,12.7-20.9,20.5-35.6,20.5h-125.1c0,0-0.4-22.7,24.6-30.3     s29.2-32.3,29.2-32.3s-12.4,9.6-37.1,0.5l47.6-68.3c8.8-12.7,23.3-20.3,38.8-20.3H2263.3z" class="colore57281 svgShape"/><path fill="none" stroke="#9a3b82" stroke-linecap="round" stroke-miterlimit="10" stroke-width="4" d="M2302.5 1625.6l-31.5 54.1c-5.9 10.1-16.6 16.3-28.3 16.3M2268.8 1625.6l-31.5 54.1c-5.9 10.1-16.6 16.3-28.3 16.3M2235.1 1625.6l-31.5 54.1c-5.9 10.1-16.6 16.3-28.3 16.3" class="colorStroke9a3b82 svgStroke"/><line x1="2263.3" x2="2286" y1="1548.8" y2="1548.8" fill="none" stroke="#9a3b82" stroke-linecap="round" stroke-miterlimit="10" stroke-width="4" class="colorStroke9a3b82 svgStroke"/><g fill="#000000" class="color000 svgShape"><path fill="#e57281" d="M2104.8,1456.7c-1,0.6-1,2.1,0,2.7c3,1.7,5,5,5,8.8v9.6c0,3.8-2,7-5,8.8c-1,0.6-1,2.1,0,2.7      c3,1.7,5,5,5,8.8v9.6c0,3.8-2,7-5,8.8c-1,0.6-1,2.1,0,2.7c3,1.7,5,5,5,8.8v9.6c0,5.6-4.4,10.1-9.9,10.1h-474.7      c-62.4,0-113.6-52.9-100.7-115.3c9.8-47.4,50.7-79.7,96.1-79.7c7.3,0,14.8,0.9,22.3,2.6l338.5,73.2h117      c6.3,0,11.4,5.2,11.4,11.6v8C2109.8,1451.6,2107.8,1454.9,2104.8,1456.7z" class="colore57281 svgShape"/><line x1="2103.3" x2="2050.1" y1="1458" y2="1458" fill="none" stroke="#9a3b82" stroke-linecap="round" stroke-miterlimit="10" stroke-width="4" class="colorStroke9a3b82 svgStroke"/><line x1="2103.3" x2="2050.1" y1="1487.8" y2="1487.8" fill="none" stroke="#9a3b82" stroke-linecap="round" stroke-miterlimit="10" stroke-width="4" class="colorStroke9a3b82 svgStroke"/><line x1="2103.3" x2="2050.1" y1="1517.6" y2="1517.6" fill="none" stroke="#9a3b82" stroke-linecap="round" stroke-miterlimit="10" stroke-width="4" class="colorStroke9a3b82 svgStroke"/><path fill="#120078" d="M2011,1428.7c0,0-75.2-110.3-54.5-112.3c20.7-2,73.9,111.8,73.9,111.8L2011,1428.7z" class="colorfff svgShape"/></g></g><g fill="#000000" class="color000 svgShape"><path fill="#e57281" d="M2196.9,1179.7c0.2,7.5-2.8,14.3-7.7,19.2c-4.8,4.8-11.4,7.7-18.6,7.7h-22.5    c-3.9,42-39.1,74.8-82.1,74.8h-24.1c-42.9,0-78.2-32.8-82.1-74.8h-22.6c-7.3,0-13.9-2.9-18.6-7.7c-4.9-4.9-7.9-11.7-7.7-19.2    c0.3-14.4,12.5-25.8,26.9-25.8h21.7V1139c0-18.5,15-33.4,33.4-33.4H2115c18.5,0,33.4,15,33.4,33.4v14.9h21.6    C2184.5,1153.9,2196.6,1165.3,2196.9,1179.7z" class="colore57281 svgShape"/><path fill="none" stroke="#9a3b82" stroke-linecap="round" stroke-miterlimit="10" stroke-width="5" d="M2156.7 1195c0-11.4 9.2-20.6 20.6-20.6M2081.4 1197.8c0 0 20.9-4.2 33.4 8M1988 1200.9c0 0 13.6-11.3 32.4-3 11.2 4.9 16.9 23.8 18.6 45.7 0 0 10.7 11.4 28.7 0M1949.1 1195c0-11.4-9.2-20.6-20.6-20.6" class="colorStroke9a3b82 svgStroke"/><ellipse cx="2012.9" cy="1225.7" fill="#9a3b82" rx="3.8" ry="7.3" class="color9a3b82 svgShape"/><ellipse cx="2091.9" cy="1225.7" fill="#9a3b82" rx="3.8" ry="7.3" class="color9a3b82 svgShape"/><g fill="#000000" class="color000 svgShape"><path fill="#ffcf2d" d="M2301.4,1100.7c-21.2,38.4-69.5,52.3-107.8,31.1c-6.5-3.6-12.3-8-17.4-12.9c-4.5,20.9-11.7,35.2-11.7,35.2     s-10.1,4.1-27.8,8.3c2.2-7.2,7.4-32.8-17.1-56.5c0,0,17,33.7-7.8,60.2c-0.5,0.5-1,1.1-1.4,1.6c-41.6,6.7-103.2,9.2-170.6-13.6     c0,0-25.3-41.6-12.8-85.3c-7.4,2.2-15.3,3.4-23.5,3.4c-45.6,0-82.6-37-82.6-82.6c0-45.6,37-82.6,82.6-82.6     c45.6,0,82.6,37,82.6,82.6c0,5.3-0.5,10.5-1.5,15.6c60-31.2,144.3-12.1,176.2,22c0.5-1.1,1.1-2.1,1.6-3.1     c21.2-38.4,69.5-52.3,107.8-31.1C2308.6,1014,2322.6,1062.3,2301.4,1100.7z" class="colorffcf2d svgShape"/><path fill="#fe5244" d="M2025.2 949.2c-6-4.7-11.8-6-17.4-3.7-8.2 3.3-15.2 14.4-20.7 33.1-.8 2.5-.4 2-1 4.4-.1-15.3-4.2-22.8-10-28.1-4.2-3.8-9.7-4.9-16.3-3.2-3.6 1-6.2 3.2-7.2 6.5-2.2 6.6 1.4 17.4 11.1 32.9 5 8 10.2 15.1 12.8 18.4l-53.1 59.2c-1.1 1.2-1 3.1.2 4.2.6.5 1.3.8 2 .8.8 0 1.6-.3 2.2-1l54.7-61c0 0 .1-.1.1-.1l3.6-4.1h0c2-1.3 11.6-7.2 21.3-15.2 14.9-12.2 22.8-22.6 23.3-31.1C2031.2 956.5 2029.2 952.4 2025.2 949.2zM1958.3 960.1c.3-.9.9-2 3.1-2.6 1.5-.4 2.9-.6 4.2-.6 2.6 0 4.7.8 6.5 2.4 8 7.3 7.6 29.3 6.2 42.8C1967.9 987.9 1955.8 967.8 1958.3 960.1zM2024.9 960.9c-.7 11.9-23.1 29.2-36.5 38.2 3-16 10.3-43.5 21.7-48.1 1-.4 2.1-.6 3.2-.6 2.6 0 5.3 1.2 8.2 3.5C2024 955.9 2025.1 958.1 2024.9 960.9zM2205.7 984.5c-5-4.8-10.3-6.5-15.9-5.1-7.8 1.9-15.6 10-23.1 24.1-1.5 2.8-2.9 5.6-4 8.2-.2-3.8-.5-8.1-1.1-12.6-2.3-18.3-7.2-29.8-14.5-34.1-5.1-3-11.2-2.6-17.9 1.4-4.6 2.7-7.2 6.6-7.5 11.4-1.2 17.2 27.2 41.5 34.9 47.8l18.9 94.4c.3 1.4 1.5 2.4 2.9 2.4.2 0 .4 0 .6-.1 1.6-.3 2.7-1.9 2.3-3.5l-18.4-92c3-1.2 11.8-5 20.9-10 15.6-8.6 23.8-16.1 25.1-22.9C2209.3 991.4 2209.1 987.9 2205.7 984.5zM2156.2 1017.5c-11.5-10-29.4-28.2-28.7-39.4.2-2.8 1.6-5 4.6-6.7 2.9-1.7 5.4-2.5 7.6-2.5 1.5 0 2.9.4 4.2 1.1 5.5 3.2 9.6 13.8 11.6 29.7.8 6.5 1.1 12.7 1.2 17.3C2156.6 1017.1 2156.4 1017.3 2156.2 1017.5zM2203 992.7c-1.5 7.8-21.4 19.1-37 26.1 5.1-12.2 14.9-31.1 25.2-33.6.7-.2 1.4-.3 2.2-.3 2.7 0 5.4 1.3 8.2 3.9C2203.2 990.5 2203.2 991.8 2203 992.7z" class="colorfe5244 svgShape"/></g></g></g></svg>